<?xml version="1.0" encoding="UTF-8"?>
<svg id="Layer_1" xmlns="http://www.w3.org/2000/svg" version="1.1" viewBox="0 0 319 100">
  <!-- Generator: Adobe Illustrator 29.1.0, SVG Export Plug-In . SVG Version: 2.1.0 Build 142)  -->
  <defs>
    <style>
      .st0 {
        fill: #f4f4f5;
      }
    </style>
  </defs>
  <g>
    <path class="st0" d="M20.89,53.44h1.79l1.52,13.13h-1.62l-.68-7.54c-.12-1.39-.26-2.78-.36-4.28h-.08c-.7,1.51-1.36,2.83-2.1,4.28l-3.88,7.54h-1.73l7.13-13.13ZM17.26,61.26h5.76l-.28,1.21h-5.79l.31-1.21Z"/>
    <path class="st0" d="M27.58,56.85h1.26l-.23,1.86h.08c.79-1.18,1.82-2.1,3.02-2.1.36,0,.65.05.93.17l-.53,1.37c-.2-.11-.49-.16-.84-.16-.97,0-2.04.85-2.88,2.45l-1.21,6.13h-1.53l1.94-9.72Z"/>
    <path class="st0" d="M33.25,64.64c0-.39.05-.7.11-1.07l1.14-5.49h-1.43l.23-1.15,1.52-.09.73-2.69h1.29l-.53,2.69h2.46l-.25,1.24h-2.49l-1.14,5.56c-.04.24-.07.47-.07.72,0,.8.32,1.21,1.24,1.21.39,0,.73-.16,1.02-.3l.33,1.1c-.43.2-1.07.44-1.84.44-1.69,0-2.32-.96-2.32-2.17Z"/>
    <path class="st0" d="M38.77,60.95h4.37l-.25,1.18h-4.37l.25-1.18Z"/>
    <path class="st0" d="M47.13,53.44h3.5c2.51,0,4.07,1.01,4.07,2.9,0,1.78-1.48,2.96-2.93,3.29v.08c1.34.31,2.39,1.16,2.39,2.66,0,2.92-2.33,4.19-5.44,4.19h-4.21l2.63-13.13ZM48.58,65.35c2.49,0,4.07-.86,4.07-2.89,0-1.33-1.07-2.24-3-2.24h-2.31l-1.04,5.12h2.29ZM49.44,59.1c2.5,0,3.68-1.04,3.68-2.53,0-1.2-.89-1.9-2.87-1.9h-1.81l-.89,4.43h1.89Z"/>
    <path class="st0" d="M56.26,63.28c0-3.73,2.56-6.67,5.25-6.67,1.04,0,1.9.58,2.36,1.47h.07l.39-1.23h1.25l-1.95,9.72h-1.26l.15-1.44h-.07c-.96,1-2.17,1.68-3.38,1.68-1.71,0-2.8-1.24-2.8-3.53ZM62.66,63.68l.89-4.34c-.57-1.03-1.25-1.44-1.99-1.44-1.94,0-3.73,2.47-3.73,5.17,0,1.67.69,2.47,1.78,2.47,1.03,0,2.1-.59,3.05-1.85Z"/>
    <path class="st0" d="M66.14,64.98l.96-.76c.59.84,1.48,1.41,2.51,1.41,1.11,0,2.06-.74,2.06-1.62,0-.7-.43-1.11-1.78-1.85-1.5-.81-2.22-1.56-2.22-2.65,0-1.72,1.52-2.91,3.33-2.91,1.19,0,2.16.54,2.87,1.3l-.89.86c-.51-.53-1.14-.96-2.01-.96-1.04,0-1.85.7-1.85,1.53s.84,1.23,1.73,1.72c1.74.95,2.28,1.7,2.28,2.75,0,1.82-1.55,3.01-3.64,3.01-1.31,0-2.68-.82-3.34-1.83Z"/>
    <path class="st0" d="M80.18,56.61c2.19,0,3.02,1.52,3.02,3.52,0,.77-.22,1.54-.36,1.9h-6.31c-.35,2.51.95,3.57,2.64,3.57.76,0,1.57-.4,2.19-.84l.59,1.01c-.77.56-1.88,1.04-3.14,1.04-2.29,0-3.81-1.46-3.81-4.07,0-3.66,2.66-6.14,5.19-6.14ZM81.78,60.99c.07-.31.11-.63.11-.99,0-1.11-.48-2.16-1.88-2.16s-2.82,1.24-3.32,3.16h5.09Z"/>
    <path class="st0" d="M92.59,56.13l.76-3.81h1.53l-2.88,14.25h-1.26l.15-1.44h-.07c-.96,1-2.17,1.68-3.38,1.68-1.71,0-2.8-1.24-2.8-3.53,0-3.73,2.56-6.67,5.25-6.67,1.04,0,1.84.57,2.3,1.42h.07l.33-1.91ZM91.06,63.68l.89-4.34c-.57-1.03-1.25-1.44-1.99-1.44-1.94,0-3.73,2.47-3.73,5.17,0,1.67.69,2.47,1.78,2.47,1.03,0,2.09-.59,3.05-1.85Z"/>
    <path class="st0" d="M101.73,53.44h3.7c2.47,0,4.12.94,4.12,3.21,0,3.22-2.39,4.64-5.74,4.64h-2.1l-1.04,5.28h-1.56l2.63-13.13ZM103.87,60.04c2.7,0,4.14-1.09,4.14-3.19,0-1.52-1.04-2.15-2.97-2.15h-2.02l-1.05,5.34h1.9Z"/>
    <path class="st0" d="M111.96,56.85h1.26l-.23,1.86h.08c.79-1.18,1.82-2.1,3.02-2.1.36,0,.65.05.93.17l-.53,1.37c-.2-.11-.49-.16-.84-.16-.97,0-2.04.85-2.88,2.45l-1.21,6.13h-1.53l1.94-9.72Z"/>
    <path class="st0" d="M116.82,62.9c0-3.68,2.59-6.3,5.25-6.3,2.1,0,3.47,1.48,3.47,3.91,0,3.68-2.59,6.3-5.25,6.3-2.1,0-3.47-1.48-3.47-3.91ZM124,60.61c0-1.76-.74-2.73-2.08-2.73-1.79,0-3.55,2.22-3.55,4.93,0,1.76.74,2.73,2.08,2.73,1.79,0,3.55-2.22,3.55-4.93Z"/>
    <path class="st0" d="M126.31,69.71l.73-1.06c.73.64,1.65,1.15,2.73,1.15,1.67,0,2.65-1.12,3.07-2.9l.49-2.07c-1.02,1.01-2.13,1.64-3.38,1.64-1.65,0-2.82-1.17-2.82-3.43,0-3.56,2.52-6.44,5.13-6.44,1.03,0,1.88.58,2.34,1.47h.07l.39-1.23h1.26l-2.05,10.18c-.53,2.58-2.12,4.03-4.56,4.03-1.3,0-2.46-.57-3.41-1.35ZM133.45,63.49l.85-4.15c-.58-1.03-1.24-1.44-1.98-1.44-1.87,0-3.61,2.4-3.61,4.93,0,1.59.66,2.37,1.74,2.37.91,0,2.07-.58,3-1.7Z"/>
    <path class="st0" d="M139.52,56.85h1.26l-.23,1.86h.08c.79-1.18,1.82-2.1,3.02-2.1.36,0,.65.05.93.17l-.53,1.37c-.2-.11-.49-.16-.84-.16-.97,0-2.04.85-2.88,2.45l-1.21,6.13h-1.53l1.94-9.72Z"/>
    <path class="st0" d="M144.4,63.28c0-3.73,2.56-6.67,5.25-6.67,1.04,0,1.9.58,2.36,1.47h.07l.39-1.23h1.25l-1.95,9.72h-1.26l.15-1.44h-.07c-.96,1-2.17,1.68-3.38,1.68-1.71,0-2.8-1.24-2.8-3.53ZM150.8,63.68l.89-4.34c-.57-1.03-1.25-1.44-1.99-1.44-1.94,0-3.73,2.47-3.73,5.17,0,1.67.69,2.47,1.78,2.47,1.03,0,2.1-.59,3.05-1.85Z"/>
    <path class="st0" d="M156.9,56.85h1.26l-.15,1.46h.08c1.02-.95,2.19-1.7,3.2-1.7,1.54,0,2.1.84,2.24,1.91,1.24-1.19,2.44-1.91,3.45-1.91,1.62,0,2.28.93,2.28,2.42,0,.47-.05.81-.16,1.34l-1.24,6.2h-1.53l1.21-6c.11-.51.16-.79.16-1.13,0-.99-.45-1.5-1.42-1.5-.55,0-1.58.54-2.73,1.75l-1.38,6.88h-1.53l1.21-6c.11-.51.16-.79.16-1.13,0-.99-.45-1.5-1.41-1.5-.57,0-1.59.54-2.74,1.75l-1.37,6.88h-1.53l1.94-9.72Z"/>
    <path class="st0" d="M172.88,56.85h1.26l-.15,1.46h.08c1.02-.95,2.19-1.7,3.2-1.7,1.54,0,2.1.84,2.24,1.91,1.24-1.19,2.44-1.91,3.45-1.91,1.62,0,2.28.93,2.28,2.42,0,.47-.05.81-.16,1.34l-1.24,6.2h-1.53l1.21-6c.11-.51.16-.79.16-1.13,0-.99-.45-1.5-1.42-1.5-.55,0-1.58.54-2.73,1.75l-1.38,6.88h-1.53l1.21-6c.11-.51.16-.79.16-1.13,0-.99-.45-1.5-1.41-1.5-.57,0-1.59.54-2.74,1.75l-1.37,6.88h-1.53l1.94-9.72Z"/>
    <path class="st0" d="M188.87,56.85h1.53l-1.95,9.72h-1.53l1.95-9.72ZM189.19,53.94c0-.66.54-1.17,1.16-1.17.51,0,.97.34.97.92,0,.66-.54,1.14-1.16,1.14-.51,0-.97-.33-.97-.9Z"/>
    <path class="st0" d="M193.6,56.85h1.26l-.15,1.46h.08c1.1-.95,2.19-1.7,3.4-1.7,1.64,0,2.31.93,2.31,2.42,0,.47-.05.81-.16,1.34l-1.24,6.2h-1.53l1.21-6c.11-.51.16-.79.16-1.13,0-.99-.45-1.5-1.45-1.5-.76,0-1.7.54-2.92,1.75l-1.37,6.88h-1.53l1.94-9.72Z"/>
    <path class="st0" d="M201.51,69.71l.73-1.06c.73.64,1.65,1.15,2.73,1.15,1.67,0,2.65-1.12,3.07-2.9l.49-2.07c-1.02,1.01-2.13,1.64-3.38,1.64-1.66,0-2.82-1.17-2.82-3.43,0-3.56,2.52-6.44,5.13-6.44,1.03,0,1.88.58,2.34,1.47h.07l.39-1.23h1.26l-2.05,10.18c-.53,2.58-2.12,4.03-4.56,4.03-1.3,0-2.46-.57-3.41-1.35ZM208.65,63.49l.85-4.15c-.58-1.03-1.24-1.44-1.98-1.44-1.87,0-3.61,2.4-3.61,4.93,0,1.59.66,2.37,1.74,2.37.91,0,2.07-.58,3-1.7Z"/>
    <path class="st0" d="M219.33,53.44h3.6c2.45,0,4.1.87,4.1,3.06,0,2.94-2.42,4.5-5.34,4.5h-2.31l-1.11,5.57h-1.56l2.63-13.13ZM221.61,59.75c2.5,0,3.88-1.17,3.88-3.04,0-1.44-1.01-2.01-2.94-2.01h-1.92l-.98,5.05h1.97ZM221.54,60.7l1.19-.92,2.74,6.79h-1.67l-2.27-5.87Z"/>
    <path class="st0" d="M232.84,56.61c2.19,0,3.02,1.52,3.02,3.52,0,.77-.22,1.54-.36,1.9h-6.31c-.35,2.51.95,3.57,2.64,3.57.76,0,1.57-.4,2.19-.84l.59,1.01c-.77.56-1.88,1.04-3.14,1.04-2.29,0-3.81-1.46-3.81-4.07,0-3.66,2.66-6.14,5.19-6.14ZM234.44,60.99c.07-.31.11-.63.11-.99,0-1.11-.48-2.16-1.88-2.16s-2.82,1.24-3.32,3.16h5.09Z"/>
    <path class="st0" d="M236.45,64.98l.96-.76c.59.84,1.48,1.41,2.51,1.41,1.11,0,2.06-.74,2.06-1.62,0-.7-.43-1.11-1.78-1.85-1.5-.81-2.22-1.56-2.22-2.65,0-1.72,1.52-2.91,3.33-2.91,1.19,0,2.16.54,2.87,1.3l-.89.86c-.51-.53-1.14-.96-2.01-.96-1.04,0-1.85.7-1.85,1.53s.84,1.23,1.73,1.72c1.74.95,2.28,1.7,2.28,2.75,0,1.82-1.55,3.01-3.64,3.01-1.31,0-2.68-.82-3.34-1.83Z"/>
    <path class="st0" d="M246.5,67.49l-.61,3.19h-1.53l2.77-13.83h1.26l-.12,1.28h.07c.98-.83,2.14-1.52,3.35-1.52,1.71,0,2.8,1.26,2.8,3.53,0,3.73-2.56,6.68-5.25,6.68-1.01,0-1.83-.58-2.34-1.41h-.04l-.37,2.08ZM248.14,59.5l-.93,4.64c.55,1,1.22,1.39,1.98,1.39,1.94,0,3.73-2.47,3.73-5.17,0-1.66-.69-2.47-1.78-2.47-.9,0-2.08.59-3,1.6Z"/>
    <path class="st0" d="M256.04,62.9c0-3.68,2.59-6.3,5.25-6.3,2.1,0,3.47,1.48,3.47,3.91,0,3.68-2.59,6.3-5.25,6.3-2.1,0-3.47-1.48-3.47-3.91ZM263.21,60.61c0-1.76-.74-2.73-2.08-2.73-1.79,0-3.55,2.22-3.55,4.93,0,1.76.74,2.73,2.08,2.73,1.79,0,3.55-2.22,3.55-4.93Z"/>
    <path class="st0" d="M268.12,56.85h1.26l-.15,1.46h.08c1.1-.95,2.19-1.7,3.4-1.7,1.64,0,2.31.93,2.31,2.42,0,.47-.05.81-.16,1.34l-1.24,6.2h-1.53l1.21-6c.11-.51.16-.79.16-1.13,0-.99-.45-1.5-1.45-1.5-.76,0-1.7.54-2.92,1.75l-1.37,6.88h-1.53l1.94-9.72Z"/>
    <path class="st0" d="M275.99,64.98l.96-.76c.59.84,1.48,1.41,2.51,1.41,1.11,0,2.06-.74,2.06-1.62,0-.7-.42-1.11-1.78-1.85-1.5-.81-2.22-1.56-2.22-2.65,0-1.72,1.52-2.91,3.33-2.91,1.19,0,2.16.54,2.87,1.3l-.89.86c-.5-.53-1.14-.96-2.01-.96-1.04,0-1.85.7-1.85,1.53s.84,1.23,1.73,1.72c1.74.95,2.28,1.7,2.28,2.75,0,1.82-1.55,3.01-3.64,3.01-1.31,0-2.68-.82-3.34-1.83Z"/>
    <path class="st0" d="M290.04,56.61c2.19,0,3.02,1.52,3.02,3.52,0,.77-.22,1.54-.36,1.9h-6.31c-.35,2.51.95,3.57,2.64,3.57.76,0,1.57-.4,2.19-.84l.59,1.01c-.77.56-1.88,1.04-3.14,1.04-2.29,0-3.81-1.46-3.81-4.07,0-3.66,2.66-6.14,5.19-6.14ZM291.64,60.99c.06-.31.1-.63.1-.99,0-1.11-.48-2.16-1.88-2.16s-2.82,1.24-3.31,3.16h5.09Z"/>
    <path class="st0" d="M293.65,64.98l.96-.76c.59.84,1.48,1.41,2.51,1.41,1.11,0,2.06-.74,2.06-1.62,0-.7-.42-1.11-1.78-1.85-1.5-.81-2.22-1.56-2.22-2.65,0-1.72,1.52-2.91,3.33-2.91,1.19,0,2.16.54,2.87,1.3l-.89.86c-.5-.53-1.14-.96-2.01-.96-1.04,0-1.85.7-1.85,1.53s.84,1.23,1.73,1.72c1.74.95,2.28,1.7,2.28,2.75,0,1.82-1.55,3.01-3.64,3.01-1.31,0-2.68-.82-3.34-1.83Z"/>
    <path class="st0" d="M16.21,88.64c0-.39.05-.7.11-1.07l1.14-5.49h-1.43l.23-1.15,1.52-.09.73-2.69h1.29l-.53,2.69h2.46l-.25,1.24h-2.49l-1.14,5.56c-.04.24-.07.47-.07.72,0,.8.32,1.21,1.24,1.21.39,0,.73-.16,1.02-.3l.33,1.1c-.43.2-1.07.44-1.84.44-1.69,0-2.32-.96-2.32-2.17Z"/>
    <path class="st0" d="M21.88,86.9c0-3.68,2.59-6.3,5.25-6.3,2.1,0,3.47,1.48,3.47,3.91,0,3.68-2.59,6.3-5.25,6.3-2.1,0-3.47-1.48-3.47-3.91ZM29.06,84.61c0-1.76-.74-2.73-2.08-2.73-1.79,0-3.55,2.22-3.55,4.93,0,1.76.74,2.73,2.08,2.73,1.79,0,3.55-2.22,3.55-4.93Z"/>
    <path class="st0" d="M38.57,77.44h1.56l-1.13,5.54h5.93l1.11-5.54h1.56l-2.63,13.13h-1.56l1.26-6.23h-5.93l-1.24,6.23h-1.56l2.63-13.13Z"/>
    <path class="st0" d="M55.66,90.57h-1.26l.15-1.48h-.08c-1.07.95-2.18,1.72-3.35,1.72-1.64,0-2.31-.93-2.31-2.42,0-.47.05-.81.16-1.34l1.24-6.2h1.53l-1.21,6c-.1.51-.16.79-.16,1.13,0,.99.45,1.5,1.45,1.5.75,0,1.68-.54,2.88-1.75l1.37-6.88h1.53l-1.94,9.72Z"/>
    <path class="st0" d="M60.8,80.85h1.26l-.23,1.86h.08c.79-1.18,1.82-2.1,3.02-2.1.36,0,.65.05.93.17l-.53,1.37c-.2-.11-.49-.16-.84-.16-.97,0-2.04.85-2.88,2.45l-1.21,6.13h-1.53l1.94-9.72Z"/>
    <path class="st0" d="M67.64,80.85h1.26l-.23,1.86h.08c.79-1.18,1.82-2.1,3.02-2.1.36,0,.65.05.93.17l-.53,1.37c-.2-.11-.49-.16-.84-.16-.97,0-2.04.85-2.88,2.45l-1.21,6.13h-1.53l1.94-9.72Z"/>
    <path class="st0" d="M74.5,80.85h1.53l-1.95,9.72h-1.53l1.95-9.72ZM74.81,77.94c0-.66.54-1.17,1.16-1.17.51,0,.97.34.97.92,0,.66-.54,1.14-1.16,1.14-.51,0-.97-.33-.97-.9Z"/>
    <path class="st0" d="M77.42,86.9c0-3.61,2.59-6.3,5.42-6.3,1.15,0,1.94.51,2.52,1.19l-.9.94c-.51-.59-.96-.86-1.72-.86-1.95,0-3.76,2.26-3.76,4.93,0,1.76.76,2.73,2.3,2.73.85,0,1.56-.41,2.14-.86l.69,1c-.71.54-1.7,1.14-3.12,1.14-2.11,0-3.57-1.42-3.57-3.91Z"/>
    <path class="st0" d="M85.86,87.28c0-3.73,2.56-6.67,5.25-6.67,1.04,0,1.9.58,2.36,1.47h.07l.39-1.23h1.25l-1.95,9.72h-1.26l.15-1.44h-.07c-.96,1-2.17,1.68-3.38,1.68-1.71,0-2.8-1.24-2.8-3.53ZM92.26,87.68l.89-4.34c-.57-1.03-1.25-1.44-1.99-1.44-1.94,0-3.73,2.47-3.73,5.17,0,1.67.69,2.47,1.78,2.47,1.03,0,2.1-.59,3.05-1.85Z"/>
    <path class="st0" d="M98.36,80.85h1.26l-.15,1.46h.08c1.1-.95,2.19-1.7,3.4-1.7,1.64,0,2.31.93,2.31,2.42,0,.47-.05.81-.16,1.34l-1.24,6.2h-1.53l1.21-6c.11-.51.16-.79.16-1.13,0-.99-.45-1.5-1.45-1.5-.76,0-1.7.54-2.92,1.75l-1.37,6.88h-1.53l1.94-9.72Z"/>
    <path class="st0" d="M112.24,80.61c2.19,0,3.02,1.52,3.02,3.52,0,.77-.22,1.54-.36,1.9h-6.31c-.35,2.51.95,3.57,2.64,3.57.76,0,1.57-.4,2.19-.84l.59,1.01c-.77.56-1.88,1.04-3.14,1.04-2.29,0-3.81-1.46-3.81-4.07,0-3.66,2.66-6.14,5.19-6.14ZM113.84,84.99c.07-.31.11-.63.11-.99,0-1.11-.48-2.16-1.88-2.16s-2.82,1.24-3.32,3.16h5.09Z"/>
    <path class="st0" d="M123.09,77.44h1.56l-1.13,5.54h5.93l1.11-5.54h1.56l-2.63,13.13h-1.56l1.26-6.23h-5.93l-1.24,6.23h-1.56l2.63-13.13Z"/>
    <path class="st0" d="M138.14,80.61c2.19,0,3.02,1.52,3.02,3.52,0,.77-.22,1.54-.36,1.9h-6.31c-.35,2.51.95,3.57,2.64,3.57.76,0,1.57-.4,2.19-.84l.59,1.01c-.77.56-1.88,1.04-3.14,1.04-2.29,0-3.81-1.46-3.81-4.07,0-3.66,2.66-6.14,5.19-6.14ZM139.74,84.99c.07-.31.11-.63.11-.99,0-1.11-.48-2.16-1.88-2.16s-2.82,1.24-3.32,3.16h5.09Z"/>
    <path class="st0" d="M142.71,89.55c0-.22.04-.5.11-.83l2.47-12.4h1.53l-2.49,12.47c-.04.2-.04.31-.04.39,0,.24.12.36.32.36.09,0,.15,0,.33-.07v1.17c-.25.09-.53.16-.95.16-.86,0-1.29-.46-1.29-1.27Z"/>
    <path class="st0" d="M152.72,80.61c2.19,0,3.02,1.52,3.02,3.52,0,.77-.22,1.54-.36,1.9h-6.31c-.35,2.51.95,3.57,2.64,3.57.76,0,1.57-.4,2.19-.84l.59,1.01c-.77.56-1.88,1.04-3.14,1.04-2.29,0-3.81-1.46-3.81-4.07,0-3.66,2.66-6.14,5.19-6.14ZM154.32,84.99c.07-.31.11-.63.11-.99,0-1.11-.48-2.16-1.88-2.16s-2.82,1.24-3.32,3.16h5.09Z"/>
    <path class="st0" d="M158.96,80.85h1.26l-.15,1.46h.08c1.1-.95,2.19-1.7,3.4-1.7,1.64,0,2.31.93,2.31,2.42,0,.47-.05.81-.16,1.34l-1.24,6.2h-1.53l1.21-6c.11-.51.16-.79.16-1.13,0-.99-.45-1.5-1.45-1.5-.76,0-1.7.54-2.92,1.75l-1.37,6.88h-1.53l1.94-9.72Z"/>
    <path class="st0" d="M172.84,80.61c2.19,0,3.02,1.52,3.02,3.52,0,.77-.22,1.54-.36,1.9h-6.31c-.35,2.51.95,3.57,2.64,3.57.76,0,1.57-.4,2.19-.84l.59,1.01c-.77.56-1.88,1.04-3.14,1.04-2.29,0-3.81-1.46-3.81-4.07,0-3.66,2.66-6.14,5.19-6.14ZM174.44,84.99c.07-.31.11-.63.11-.99,0-1.11-.48-2.16-1.88-2.16s-2.82,1.24-3.32,3.16h5.09Z"/>
    <path class="st0" d="M182.93,80.85h1.53l-1.95,9.72h-1.53l1.95-9.72ZM183.25,77.94c0-.66.54-1.17,1.16-1.17.51,0,.97.34.97.92,0,.66-.54,1.14-1.16,1.14-.51,0-.97-.33-.97-.9Z"/>
    <path class="st0" d="M187.66,80.85h1.26l-.15,1.46h.08c1.1-.95,2.19-1.7,3.4-1.7,1.64,0,2.31.93,2.31,2.42,0,.47-.05.81-.16,1.34l-1.24,6.2h-1.53l1.21-6c.11-.51.16-.79.16-1.13,0-.99-.45-1.5-1.45-1.5-.76,0-1.7.54-2.92,1.75l-1.37,6.88h-1.53l1.94-9.72Z"/>
    <path class="st0" d="M201.53,77.44h1.59l-.19,7.22c-.08,1.41-.1,2.84-.2,4.26h.08c.62-1.42,1.28-2.86,1.87-4.26l3.28-7.22h1.41l.18,7.22c.04,1.4.03,2.84.03,4.26h.08c.54-1.43,1.11-2.86,1.66-4.26l2.85-7.22h1.52l-5.4,13.13h-1.97l-.14-8.01c0-.97.02-2.04.06-3.08h-.08c-.38,1.04-.84,2.03-1.28,3.08l-3.58,8.01h-1.94l.18-13.13Z"/>
    <path class="st0" d="M220.36,80.61c2.19,0,3.02,1.52,3.02,3.52,0,.77-.22,1.54-.36,1.9h-6.31c-.35,2.51.95,3.57,2.64,3.57.76,0,1.57-.4,2.19-.84l.59,1.01c-.77.56-1.88,1.04-3.14,1.04-2.29,0-3.81-1.46-3.81-4.07,0-3.66,2.66-6.14,5.19-6.14ZM221.96,84.99c.07-.31.11-.63.11-.99,0-1.11-.48-2.16-1.88-2.16s-2.82,1.24-3.32,3.16h5.09Z"/>
    <path class="st0" d="M223.97,88.98l.96-.76c.59.84,1.48,1.41,2.51,1.41,1.11,0,2.06-.74,2.06-1.62,0-.7-.43-1.11-1.78-1.85-1.5-.81-2.22-1.56-2.22-2.65,0-1.72,1.52-2.91,3.33-2.91,1.19,0,2.16.54,2.87,1.3l-.89.86c-.51-.53-1.14-.96-2.01-.96-1.04,0-1.85.7-1.85,1.53s.84,1.23,1.73,1.72c1.74.95,2.28,1.7,2.28,2.75,0,1.82-1.55,3.01-3.64,3.01-1.31,0-2.68-.82-3.34-1.83Z"/>
    <path class="st0" d="M233.46,88.64c0-.39.05-.7.11-1.07l1.14-5.49h-1.43l.23-1.15,1.52-.09.73-2.69h1.29l-.53,2.69h2.46l-.25,1.24h-2.49l-1.14,5.56c-.04.24-.07.47-.07.72,0,.8.32,1.21,1.24,1.21.39,0,.73-.16,1.02-.3l.33,1.1c-.43.2-1.07.44-1.84.44-1.69,0-2.32-.96-2.32-2.17Z"/>
    <path class="st0" d="M244.3,80.61c2.19,0,3.02,1.52,3.02,3.52,0,.77-.22,1.54-.36,1.9h-6.31c-.35,2.51.95,3.57,2.64,3.57.76,0,1.57-.4,2.19-.84l.59,1.01c-.77.56-1.88,1.04-3.14,1.04-2.29,0-3.81-1.46-3.81-4.07,0-3.66,2.66-6.14,5.19-6.14ZM245.9,84.99c.07-.31.11-.63.11-.99,0-1.11-.48-2.16-1.88-2.16s-2.82,1.24-3.32,3.16h5.09Z"/>
    <path class="st0" d="M250.54,80.85h1.26l-.23,1.86h.08c.79-1.18,1.82-2.1,3.02-2.1.36,0,.65.05.93.17l-.53,1.37c-.2-.11-.49-.16-.84-.16-.97,0-2.04.85-2.88,2.45l-1.21,6.13h-1.53l1.94-9.72Z"/>
    <path class="st0" d="M257.38,80.85h1.26l-.15,1.46h.08c1.1-.95,2.19-1.7,3.4-1.7,1.64,0,2.31.93,2.31,2.42,0,.47-.05.81-.16,1.34l-1.24,6.2h-1.53l1.21-6c.11-.51.16-.79.16-1.13,0-.99-.45-1.5-1.45-1.5-.76,0-1.7.54-2.92,1.75l-1.37,6.88h-1.53l1.94-9.72Z"/>
    <path class="st0" d="M272.49,77.44h1.56l2.99,8.41.84,2.74h.08c.17-1.3.33-2.83.6-4.19l1.4-6.97h1.5l-2.63,13.13h-1.54l-2.96-8.39-.85-2.82h-.08c-.17,1.35-.37,2.81-.64,4.15l-1.4,7.06h-1.5l2.63-13.13Z"/>
    <path class="st0" d="M282.69,85.52c0-4.14,2.71-8.32,6.77-8.32,1.49,0,2.57.84,3.23,1.94l-1.1.82c-.5-.85-1.21-1.42-2.22-1.42-3.12,0-5.1,3.64-5.1,6.82,0,2.39,1,4.1,3.34,4.1,1.06,0,1.93-.45,2.78-1.17l.71,1c-.97.83-2.19,1.51-3.77,1.51-2.99,0-4.65-2.15-4.65-5.29Z"/>
  </g>
  <g>
    <path class="st0" d="M39.47,41.65h-8.71l-.63-3.96h-5.68l-.69,3.96h-8.71l7.5-31.2h10.31l6.61,31.2ZM29.14,31l-.55-3.64s-.04-.2-.08-.55c-.03-.3-.17-1.47-.42-3.52-.03-.23-.06-.54-.1-.94-.04-.4-.09-.9-.16-1.51l-.26-2.95c-.03.28-.06.6-.11.95-.05.35-.1.73-.15,1.15-.09.84-.16,1.41-.2,1.74-.04.32-.07.52-.08.59l-.59,3.78-.85,4.89h3.56Z"/>
    <path class="st0" d="M64.11,41.65h-9.11l-4.16-11.12c-.04-.19-.11-.44-.21-.75s-.23-.68-.37-1.11l.06,2.06v10.91h-8.39V10.45h8.63c3.8,0,6.64.75,8.53,2.24,2.4,1.91,3.6,4.64,3.6,8.17,0,3.77-1.61,6.38-4.83,7.82l6.27,12.98ZM50.34,24.9h.57c.97,0,1.78-.37,2.43-1.11.65-.74.97-1.68.97-2.83,0-2.33-1.22-3.5-3.66-3.5h-.3v7.44Z"/>
    <path class="st0" d="M78.07,41.65h-8.43v-23.73h-4.65v-7.48h17.91v7.48h-4.83v23.73Z"/>
    <path class="st0" d="M119.73,41.65h-9.11l-4.16-11.12c-.04-.19-.11-.44-.21-.75s-.23-.68-.37-1.11l.06,2.06v10.91h-8.39V10.45h8.63c3.8,0,6.64.75,8.53,2.24,2.4,1.91,3.6,4.64,3.6,8.17,0,3.77-1.61,6.38-4.83,7.82l6.27,12.98ZM105.96,24.9h.57c.97,0,1.78-.37,2.43-1.11.65-.74.97-1.68.97-2.83,0-2.33-1.22-3.5-3.66-3.5h-.3v7.44Z"/>
    <path class="st0" d="M122.51,41.65V10.45h15.66v7.34h-7.24v4.55h6.49v7.05h-6.49v4.77h7.24v7.5h-15.66Z"/>
    <path class="st0" d="M156.53,41.65h-14.75V10.45h8.43v23.71h6.33v7.5Z"/>
    <path class="st0" d="M167.46,41.65h-8.43V10.45h8.43v31.2Z"/>
    <path class="st0" d="M171.83,41.65V10.45h15.66v7.34h-7.24v4.55h6.49v7.05h-6.49v4.77h7.24v7.5h-15.66Z"/>
    <path class="st0" d="M199.52,41.65h-8.43V10.45h14.9v7.34h-6.47v4.55h6.02v7.05h-6.02v12.27Z"/>
    <path class="st0" d="M253.82,41.65h-8.81l-.63-14.23-.26-5.68c-.09,1.09-.2,2.13-.32,3.12-.12.99-.27,1.95-.44,2.88l-2.65,13.9h-6.87l-2.26-13.92c-.13-.81-.32-2.2-.55-4.16-.03-.3-.09-.9-.18-1.82l-.2,5.76-.75,14.15h-8.97l3.64-31.2h10.49l1.76,10.51c.15.86.28,1.8.39,2.81.11,1.01.22,2.11.31,3.29.17-1.98.42-3.75.73-5.32l2.14-11.3h10.41l3.03,31.2Z"/>
    <path class="st0" d="M280.03,41.65h-8.71l-.63-3.96h-5.68l-.69,3.96h-8.71l7.5-31.2h10.31l6.61,31.2ZM269.71,31l-.55-3.64s-.04-.2-.08-.55c-.03-.3-.17-1.47-.42-3.52-.03-.23-.06-.54-.1-.94-.04-.4-.09-.9-.16-1.51l-.26-2.95c-.03.28-.06.6-.11.95-.05.35-.1.73-.15,1.15-.09.84-.16,1.41-.2,1.74-.04.32-.07.52-.08.59l-.59,3.78-.85,4.89h3.56Z"/>
    <path class="st0" d="M290.91,41.65h-8.43V10.45h8.17c4.07,0,7.09.83,9.05,2.49,2.32,1.95,3.48,4.67,3.48,8.14,0,3.79-1.23,6.61-3.7,8.47-1.68,1.25-4.1,1.88-7.26,1.88h-1.31v10.23ZM290.91,24.41l.38.02c1.02,0,1.84-.31,2.45-.94.61-.63.91-1.49.91-2.58s-.3-1.95-.89-2.63c-.59-.69-1.35-1.03-2.26-1.03h-.59v7.15Z"/>
  </g>
</svg>