<?xml version="1.0" encoding="UTF-8"?>
<svg id="Layer_1" data-name="Layer 1" xmlns="http://www.w3.org/2000/svg" viewBox="0 0 797.88 409.15">
  <path d="M98.43,409.15c-6.1-3.71-9.94-7.83-8.73-15.52,1.14-7.2,11.15-10.76,16.49-14.64,8.97-6.51,17.27-13.84,24.17-22.52C50.47,343.38-4.03,274.07.23,193.18,4.97,103.28,71.53,25.12,158.96,5.39c12.59-2.84,35.14-6.66,47.59-4.97,9.23,1.25,13.89,12.05,8.81,19.85-2.57,3.95-17.19,11.86-22.29,16.03-6.07,4.97-11.39,10.72-16.39,16.73,79.2,12.92,133.81,81.5,130.18,161.73-4.56,100.68-87.05,187-188,193.64l-1.27.74h-19.16ZM160.71,31.49C93.5,47.84,39.7,105.87,28.4,174.24c-12.76,77.24,31.25,147.9,111.16,157.45,8.55,1.02,19.37-1.5,24.69,6.45s-.85,16.23-5.43,23.2c-3.77,5.74-8.7,10.68-12.09,16.64,69.41-17.49,123.02-77.19,132.84-148.21,10.4-75.29-35.17-142.79-112.07-151.98-8.81-1.05-19.74,1.61-25.01-6.93-6.08-9.85,4.27-18.77,8.8-26.86l9.43-12.52Z" style="fill: #fbfdff;"/>
  <path d="M160.71,31.49l-9.43,12.52c-4.52,8.1-14.88,17.01-8.8,26.86,5.27,8.54,16.21,5.87,25.01,6.93,76.9,9.2,122.47,76.7,112.07,151.98-9.81,71.01-63.43,130.71-132.84,148.21,3.39-5.97,8.32-10.91,12.09-16.64,4.58-6.97,10.94-14.97,5.43-23.2s-16.14-5.43-24.69-6.45c-79.91-9.56-123.91-80.21-111.16-157.45C39.7,105.87,93.5,47.84,160.71,31.49ZM230.14,204.75c0-42.31-34.3-76.62-76.62-76.62s-76.62,34.3-76.62,76.62,34.3,76.62,76.62,76.62,76.62-34.3,76.62-76.62Z" style="fill: #fdc007;"/>
  <path d="M230.14,204.75c0,42.31-34.3,76.62-76.62,76.62s-76.62-34.3-76.62-76.62,34.3-76.62,76.62-76.62,76.62,34.3,76.62,76.62ZM204.64,204.75c0-28.23-22.89-51.12-51.12-51.12s-51.12,22.89-51.12,51.12,22.89,51.12,51.12,51.12,51.12-22.89,51.12-51.12Z" style="fill: #fbfdff;"/>
  <text transform="translate(370.67 148.69)" style="font-family: FuturaPT-Demi, &apos;Futura PT&apos;; font-size: 100.95px; font-weight: 300;"><tspan style="fill: #fdc007;"><tspan x="0" y="0">Hurricane</tspan></tspan><tspan style="fill: #fdc007;"><tspan x="0" y="84.12">Helene</tspan></tspan><tspan style="fill: #fbfdff;"><tspan x="0" y="168.25">A</tspan><tspan x="67.84" y="168.25" style="letter-spacing: -.01em;">r</tspan><tspan x="103.07" y="168.25" style="letter-spacing: 0em;">chi</tspan><tspan x="223.2" y="168.25" style="letter-spacing: 0em;">v</tspan><tspan x="273.07" y="168.25">e</tspan></tspan></text>
</svg>