<?xml version="1.0" encoding="UTF-8"?>
<svg id="Layer_1" data-name="Layer 1" xmlns="http://www.w3.org/2000/svg" viewBox="0 0 950 475">
  <defs>
    <style>
      .cls-1 {
        font-family: FuturaPT-Heavy, 'Futura PT';
        font-size: 100.95px;
        font-weight: 800;
      }

      .cls-2 {
        fill: #fdc007;
      }

      .cls-3 {
        letter-spacing: -.02em;
      }

      .cls-4 {
        fill: #fbfdff;
      }

      .cls-5 {
        letter-spacing: 0em;
      }
    </style>
  </defs>
  <path class="cls-4" d="M143.51,441.74c-6.1-3.71-9.94-7.83-8.73-15.52,1.14-7.2,11.15-10.76,16.49-14.64,8.97-6.51,17.27-13.84,24.17-22.52-79.9-13.08-134.4-82.39-130.14-163.28,4.74-89.89,71.3-168.06,158.73-187.79,12.59-2.84,35.14-6.66,47.59-4.97,9.23,1.25,13.89,12.05,8.81,19.85-2.57,3.95-17.19,11.86-22.29,16.03-6.07,4.97-11.39,10.72-16.39,16.73,79.2,12.92,133.81,81.5,130.18,161.73-4.56,100.68-87.05,187-188,193.64l-1.27.74h-19.16ZM205.79,64.08c-67.21,16.35-121.01,74.38-132.3,142.75-12.76,77.24,31.25,147.9,111.16,157.45,8.55,1.02,19.37-1.5,24.69,6.45s-.85,16.23-5.43,23.2c-3.77,5.74-8.7,10.68-12.09,16.64,69.41-17.49,123.02-77.19,132.84-148.21,10.4-75.29-35.17-142.79-112.07-151.98-8.81-1.05-19.74,1.61-25.01-6.93-6.08-9.85,4.27-18.77,8.8-26.86l9.43-12.52Z"/>
  <path class="cls-2" d="M205.79,64.08l-9.43,12.52c-4.52,8.1-14.88,17.01-8.8,26.86,5.27,8.54,16.21,5.87,25.01,6.93,76.9,9.2,122.47,76.7,112.07,151.98-9.81,71.01-63.43,130.71-132.84,148.21,3.39-5.97,8.32-10.91,12.09-16.64,4.58-6.97,10.94-14.97,5.43-23.2s-16.14-5.43-24.69-6.45c-79.91-9.56-123.91-80.21-111.16-157.45,11.29-68.37,65.1-126.4,132.3-142.75ZM275.22,237.34c0-42.31-34.3-76.62-76.62-76.62s-76.62,34.3-76.62,76.62,34.3,76.62,76.62,76.62,76.62-34.3,76.62-76.62Z"/>
  <path class="cls-4" d="M275.22,237.34c0,42.31-34.3,76.62-76.62,76.62s-76.62-34.3-76.62-76.62,34.3-76.62,76.62-76.62,76.62,34.3,76.62,76.62ZM249.72,237.34c0-28.23-22.89-51.12-51.12-51.12s-51.12,22.89-51.12,51.12,22.89,51.12,51.12,51.12,51.12-22.89,51.12-51.12Z"/>
  <text class="cls-1" transform="translate(415.75 181.28)"><tspan class="cls-2"><tspan x="0" y="0">Hurricane</tspan></tspan><tspan class="cls-2"><tspan x="0" y="84.12">Helene</tspan></tspan><tspan class="cls-4"><tspan x="0" y="168.25">Archi</tspan><tspan class="cls-3" x="236.12" y="168.25">v</tspan><tspan class="cls-5" x="289.72" y="168.25">e</tspan></tspan></text>
</svg>